<svg version="1.1" id="Layer_1" xmlns="http://www.w3.org/2000/svg" xmlns:xlink="http://www.w3.org/1999/xlink" x="0px" y="0px"
	 width="100%" viewBox="0 0 512 512" enable-background="new 0 0 512 512" xml:space="preserve">
<path fill="#ffffff" opacity="1.000000" stroke="none" 
	d="
M300.000000,513.000000 
	C200.024277,513.000000 100.548546,513.000000 1.036411,513.000000 
	C1.036411,342.399261 1.036411,171.798492 1.036411,1.098866 
	C171.559067,1.098866 342.118225,1.098866 512.838684,1.098866 
	C512.838684,171.666550 512.838684,342.333252 512.838684,513.000000 
	C442.131805,513.000000 371.315887,513.000000 300.000000,513.000000 
M447.497925,354.001343 
	C462.102417,326.649384 469.355530,297.166351 470.704010,266.477631 
	C471.379669,251.100525 469.886658,235.458282 467.718475,220.170822 
	C465.234192,202.654678 459.707916,185.753815 452.126221,169.686661 
	C450.652832,166.564316 451.435394,164.982193 453.531708,162.911499 
	C464.320831,152.254379 475.017029,141.503143 485.736237,130.775375 
	C496.841278,119.661484 496.877472,106.389977 485.837921,95.342850 
	C475.706909,85.204872 465.470093,75.170334 455.461151,64.913361 
	C445.643616,54.852543 431.153625,54.822411 421.653473,64.781807 
	C414.638580,72.135803 407.310638,79.191185 400.122437,86.379845 
	C394.376495,92.126167 394.389679,92.108147 387.705200,87.313835 
	C372.062927,76.094666 355.634399,66.318939 337.788666,58.898979 
	C313.529572,48.812439 288.148315,44.334351 262.108795,43.096851 
	C255.542511,42.784794 248.886292,43.359558 242.330002,44.068588 
	C231.288498,45.262672 220.144897,46.187233 209.310822,48.483109 
	C187.388321,53.128757 166.881592,61.747425 147.588715,73.120995 
	C126.153214,85.757668 107.510750,101.813629 91.692101,120.951324 
	C77.924232,137.607956 67.252914,156.218674 58.922478,176.202072 
	C49.218918,199.479370 44.326164,223.832932 43.198345,248.850586 
	C42.688763,260.154266 43.600842,271.657135 45.183491,282.884186 
	C46.968380,295.545868 49.604782,308.171600 52.992836,320.504791 
	C59.079590,342.661713 69.805946,362.707672 82.971527,381.474609 
	C93.737495,396.820953 106.501816,410.392090 120.919861,422.248535 
	C137.600586,435.965668 156.142975,446.759521 176.142563,455.062012 
	C200.543839,465.191803 226.056915,469.994446 252.299576,470.903870 
	C268.922699,471.479919 285.362610,469.308685 301.712646,466.092407 
	C323.820648,461.743469 344.467499,453.518341 363.830872,442.404327 
	C384.707703,430.421600 403.195923,415.304993 418.866669,396.779968 
	C429.887299,383.752045 439.675812,370.024811 447.497925,354.001343 
z"/>
<path fill="#2684FC" opacity="1.000000" stroke="none" 
	d="
M447.281189,354.314545 
	C439.675812,370.024811 429.887299,383.752045 418.866669,396.779968 
	C403.195923,415.304993 384.707703,430.421600 363.830872,442.404327 
	C344.467499,453.518341 323.820648,461.743469 301.712646,466.092407 
	C285.362610,469.308685 268.922699,471.479919 252.299576,470.903870 
	C226.056915,469.994446 200.543839,465.191803 176.142563,455.062012 
	C156.142975,446.759521 137.600586,435.965668 120.919861,422.248535 
	C106.501816,410.392090 93.737495,396.820953 82.971527,381.474609 
	C69.805946,362.707672 59.079590,342.661713 52.992836,320.504791 
	C49.604782,308.171600 46.968380,295.545868 45.183491,282.884186 
	C43.600842,271.657135 42.688763,260.154266 43.198345,248.850586 
	C44.326164,223.832932 49.218918,199.479370 58.922478,176.202072 
	C67.252914,156.218674 77.924232,137.607956 91.692101,120.951324 
	C107.510750,101.813629 126.153214,85.757668 147.588715,73.120995 
	C166.881592,61.747425 187.388321,53.128757 209.310822,48.483109 
	C220.144897,46.187233 231.288498,45.262672 242.330002,44.068588 
	C248.886292,43.359558 255.542511,42.784794 262.108795,43.096851 
	C288.148315,44.334351 313.529572,48.812439 337.788666,58.898979 
	C355.634399,66.318939 372.062927,76.094666 387.705200,87.313835 
	C394.389679,92.108147 394.376495,92.126167 400.122437,86.379845 
	C407.310638,79.191185 414.638580,72.135803 421.653473,64.781807 
	C431.153625,54.822411 445.643616,54.852543 455.461151,64.913361 
	C465.470093,75.170334 475.706909,85.204872 485.837921,95.342850 
	C496.877472,106.389977 496.841278,119.661484 485.736237,130.775375 
	C475.017029,141.503143 464.320831,152.254379 453.531708,162.911499 
	C451.435394,164.982193 450.652832,166.564316 452.126221,169.686661 
	C459.707916,185.753815 465.234192,202.654678 467.718475,220.170822 
	C469.886658,235.458282 471.379669,251.100525 470.704010,266.477631 
	C469.355530,297.166351 462.102417,326.649384 447.281189,354.314545 
M265.500824,221.000443 
	C290.308716,196.216003 315.116577,171.431564 339.974213,146.597397 
	C279.789093,102.029259 197.725952,112.435692 150.605637,168.944672 
	C111.983475,215.262268 102.332047,292.101746 155.904388,351.084076 
	C195.102585,394.240723 267.075806,414.001373 332.097565,372.886475 
	C383.886383,340.139099 404.965759,275.732544 390.929352,225.749176 
	C389.505859,227.107010 388.185852,228.315491 386.921478,229.579590 
	C350.390533,266.102203 313.867706,302.632935 277.337402,339.156189 
	C265.854645,350.636719 248.132080,350.622955 236.638000,339.131378 
	C211.419968,313.918915 186.285645,288.622040 160.954483,263.523804 
	C150.969177,253.630310 150.776489,239.118744 161.058792,229.335953 
	C171.317169,219.575943 181.348557,209.556396 191.099518,199.289764 
	C201.435181,188.407516 215.702026,188.807144 225.994812,199.425568 
	C235.966415,209.712677 246.196930,219.748825 256.715607,230.298218 
	C259.553101,227.285141 262.277008,224.392654 265.500824,221.000443 
M396.977295,218.474686 
	C413.219177,202.232758 429.420319,185.949677 445.743439,169.789841 
	C448.431152,167.128998 449.754517,164.730835 447.563599,161.112396 
	C445.240326,157.275330 443.348633,153.179184 441.085083,149.303268 
	C429.496277,129.459717 415.074646,111.957802 397.793457,96.780159 
	C394.687927,94.052635 392.780273,94.501472 390.008575,97.320595 
	C374.955719,112.630852 359.701477,127.743050 344.530426,142.937271 
	C343.493408,143.975845 342.569489,145.127350 341.058044,146.828339 
	C366.316132,166.594284 383.269958,191.791397 391.613770,223.464920 
	C393.853851,221.396484 395.167603,220.183426 396.977295,218.474686 
z"/>
<path fill="#ffffff" opacity="1.000000" stroke="none" 
	d="
M265.250854,221.250305 
	C262.277008,224.392654 259.553101,227.285141 256.715607,230.298218 
	C246.196930,219.748825 235.966415,209.712677 225.994812,199.425568 
	C215.702026,188.807144 201.435181,188.407516 191.099518,199.289764 
	C181.348557,209.556396 171.317169,219.575943 161.058792,229.335953 
	C150.776489,239.118744 150.969177,253.630310 160.954483,263.523804 
	C186.285645,288.622040 211.419968,313.918915 236.638000,339.131378 
	C248.132080,350.622955 265.854645,350.636719 277.337402,339.156189 
	C313.867706,302.632935 350.390533,266.102203 386.921478,229.579590 
	C388.185852,228.315491 389.505859,227.107010 390.929352,225.749176 
	C404.965759,275.732544 383.886383,340.139099 332.097565,372.886475 
	C267.075806,414.001373 195.102585,394.240723 155.904388,351.084076 
	C102.332047,292.101746 111.983475,215.262268 150.605637,168.944672 
	C197.725952,112.435692 279.789093,102.029259 339.974213,146.597397 
	C315.116577,171.431564 290.308716,196.216003 265.250854,221.250305 
z"/>
<path fill="#0066DA" opacity="1.000000" stroke="none" 
	d="
M396.729309,218.722519 
	C395.167603,220.183426 393.853851,221.396484 391.613770,223.464920 
	C383.269958,191.791397 366.316132,166.594284 341.058044,146.828339 
	C342.569489,145.127350 343.493408,143.975845 344.530426,142.937271 
	C359.701477,127.743050 374.955719,112.630852 390.008575,97.320595 
	C392.780273,94.501472 394.687927,94.052635 397.793457,96.780159 
	C415.074646,111.957802 429.496277,129.459717 441.085083,149.303268 
	C443.348633,153.179184 445.240326,157.275330 447.563599,161.112396 
	C449.754517,164.730835 448.431152,167.128998 445.743439,169.789841 
	C429.420319,185.949677 413.219177,202.232758 396.729309,218.722519 
z"/>
</svg>